<?xml version="1.0" encoding="UTF-8"?>
<!DOCTYPE svg PUBLIC "-//W3C//DTD SVG 1.1//EN" "http://www.w3.org/Graphics/SVG/1.1/DTD/svg11.dtd">
<!-- Creator: CorelDRAW -->
<svg xmlns="http://www.w3.org/2000/svg" xml:space="preserve" width="450mm" height="300mm" style="shape-rendering:geometricPrecision; text-rendering:geometricPrecision; image-rendering:optimizeQuality; fill-rule:evenodd; clip-rule:evenodd"
viewBox="0 0 450 300"
 xmlns:xlink="http://www.w3.org/1999/xlink">
 <defs>
  <style type="text/css">
   <![CDATA[
    .fil11 {fill:#0292D1}
    .fil12 {fill:#0297D4}
    .fil23 {fill:#0299D5}
    .fil7 {fill:#029CD7}
    .fil6 {fill:#02A0DA}
    .fil4 {fill:#038DCD}
    .fil10 {fill:#0488C9}
    .fil5 {fill:#0582C6}
    .fil22 {fill:#0589C8}
    .fil28 {fill:#05A5DD}
    .fil9 {fill:#067BBD}
    .fil19 {fill:#067DC3}
    .fil8 {fill:#06A6DE}
    .fil13 {fill:#06AAE0}
    .fil31 {fill:#0AABDD}
    .fil17 {fill:#13AEE3}
    .fil30 {fill:#18A8DC}
    .fil29 {fill:#1CB1E4}
    .fil15 {fill:#23B3E5}
    .fil25 {fill:#29ABE3}
    .fil20 {fill:#2BB4E6}
    .fil14 {fill:#34BAEA}
    .fil33 {fill:#36ADE3}
    .fil34 {fill:#3AB6E6}
    .fil3 {fill:#41BFEC}
    .fil27 {fill:#48B7E7}
    .fil21 {fill:#4BB2E7}
    .fil16 {fill:#5CC4ED}
    .fil26 {fill:#67B9E6}
    .fil24 {fill:#88C5EB}
    .fil2 {fill:#95C123}
    .fil18 {fill:#96C225}
    .fil32 {fill:#A8D4F5}
    .fil35 {fill:#C6DAF4}
    .fil37 {fill:#D8E9F8}
    .fil38 {fill:#E7F2FB}
    .fil36 {fill:#F6FAFB}
    .fil39 {fill:#2B2A29;fill-rule:nonzero}
    .fil1 {fill:#0E9BD8;fill-rule:nonzero}
    .fil0 {fill:#9EB72B;fill-rule:nonzero}
   ]]>
  </style>
  <clipPath id="id0" style="clip-rule:nonzero">
   <rect x="225" y="124.6" width="25.3999" height="25.4042"/>
  </clipPath>
 </defs>
<symbol id="Meta36-36-0" viewBox="186.897 86.4898 101.607 101.624">
 <g style="clip-path:url(#id0)">
  <image transform="matrix(71.9952 0 0 72.0075 -15973.9 -10651.1)" x="225" y="149.647" width="0.3528" height="0.3528" xlink:href="eco tech logo 2024_Images\eco tech logo 2024_ImgID1.png"/>
 </g>
</symbol>
 <g id="Layer_x0020_1">
  <metadata id="CorelCorpID_0Corel-Layer"/>
  <g id="_426540504">
   <g>
    <path id="_426533928" class="fil0" d="M192.577 118.671l-0.6959 6.6371 -0.462 0.0138c0.0035,-1.1258 -0.1396,-2.0591 -0.4303,-2.7937 -0.2898,-0.7412 -0.7727,-1.3863 -1.4471,-1.949 -0.5576,-0.4738 -1.2478,-0.8031 -2.0757,-0.9953 -0.8271,-0.199 -1.9515,-0.2951 -3.3724,-0.2951l-4.6053 0 -1.8776 12.0728 1.2078 0c1.2219,0 2.1543,-0.0823 2.7966,-0.2401 0.6366,-0.1649 1.1892,-0.4531 1.6377,-0.8648 0.4382,-0.3912 0.7913,-0.8512 1.0518,-1.3796 0.2608,-0.5286 0.5333,-1.311 0.8171,-2.3405l0.4565 0.0206 -1.7571 10.7689 -0.4598 0c0.0366,-1.0296 -0.0058,-1.86 -0.148,-2.4916 -0.135,-0.6313 -0.3744,-1.1668 -0.7248,-1.6059 -0.3306,-0.4325 -0.8102,-0.7481 -1.4173,-0.9472 -0.6145,-0.199 -1.4152,-0.302 -2.4104,-0.302l-1.1462 0 -0.7161 4.6053c-0.2863,1.8395 -0.4465,3.178 -0.4807,4.0153 -0.0408,0.8373 0.0357,1.5374 0.2148,2.107 0.3034,0.9609 0.8868,1.6679 1.7496,2.1209 0.8643,0.4462 2.0575,0.6726 3.5881,0.6726 1.6061,0 2.9902,-0.206 4.1375,-0.6107 1.1486,-0.4119 2.1321,-1.0435 2.9521,-1.9014 0.5701,-0.5765 1.0636,-1.2353 1.481,-1.9765 0.4163,-0.7346 0.8493,-1.7092 1.2909,-2.9171l0.4569 0.0207 -1.5057 8.0028 -23.9879 0 0.0714 -0.4598c0.7683,-0.0413 1.4087,-0.1443 1.9103,-0.3227 0.5004,-0.1715 0.9695,-0.4529 1.4078,-0.8441 0.478,-0.4257 0.8516,-0.9747 1.1064,-1.6404 0.2601,-0.6589 0.4935,-1.6748 0.707,-3.0475l2.3048 -14.8183c0.2135,-1.3728 0.296,-2.3885 0.2408,-3.0473 -0.0478,-0.666 -0.2506,-1.215 -0.5963,-1.6406 -0.3029,-0.391 -0.6775,-0.6726 -1.1247,-0.8442 -0.4458,-0.1784 -1.0611,-0.2814 -1.8303,-0.3224l0.0715 -0.46 21.6132 0zm28.7943 -0.1441l-1.1592 8.9981 -0.4598 0c-0.0835,-0.3912 -0.1541,-0.6864 -0.2055,-0.8854 -0.2661,-1.2904 -0.502,-2.2444 -0.6991,-2.8758 -0.3452,-1.1326 -0.9404,-2.1621 -1.7892,-3.1023 -0.6382,-0.707 -1.3397,-1.2287 -2.0924,-1.5511 -0.7527,-0.3227 -1.6344,-0.4805 -2.6363,-0.4805 -1.517,0 -2.886,0.3293 -4.1003,0.9882 -1.0632,0.5699 -2.1052,1.4002 -3.1169,2.4778 -1.012,1.0776 -1.8972,2.313 -2.6472,3.6926 -1.0639,1.9424 -1.792,4.1524 -2.1774,6.6301 -0.3276,2.1073 -0.3615,4.0015 -0.1023,5.69 0.2587,1.6883 0.8075,3.1023 1.6326,4.2416 1.5232,2.1208 3.8093,3.1778 6.8704,3.1778 1.5305,0 2.9447,-0.2676 4.2489,-0.7962 1.2968,-0.5284 2.3602,-1.2767 3.1824,-2.2376 0.9485,-1.1117 1.7453,-2.615 2.3887,-4.5023l0.4471 0.0823c-0.5827,2.1139 -1.4218,3.8025 -2.5142,5.0447 -1.0437,1.1943 -2.3663,2.1071 -3.9731,2.7317 -1.6084,0.6314 -3.4008,0.9472 -5.3843,0.9472 -1.8463,0 -3.5745,-0.2745 -5.1776,-0.8238 -2.5597,-0.8852 -4.4111,-2.4845 -5.5682,-4.7975 -1.1581,-2.3061 -1.4841,-5.0653 -0.9855,-8.2706 0.381,-2.4501 1.1724,-4.7152 2.3791,-6.7812 1.2079,-2.0726 2.7027,-3.7405 4.4766,-4.9965 1.3723,-0.9678 2.947,-1.7365 4.7307,-2.3061 1.7842,-0.5697 3.53,-0.8513 5.232,-0.8513 1.62,0 3.2879,0.3089 5.0037,0.9267l1.5629 0.5422c0.3045,0.1167 0.5763,0.1784 0.8166,0.1784 0.3362,0 0.632,-0.1372 0.8886,-0.4185 0.1174,-0.1374 0.2614,-0.3571 0.4467,-0.6658l0.4815 -0.0069zm1.6035 14.0497c0.35,-2.2513 1.1562,-4.3446 2.4229,-6.2666 1.2607,-1.9286 2.9283,-3.6031 5.0045,-5.0378 1.545,-1.0638 3.1603,-1.8736 4.8412,-2.4432 1.681,-0.5697 3.3387,-0.8582 4.9586,-0.8582 2.0658,0 3.9858,0.4532 5.7806,1.359 1.7877,0.9061 3.2776,2.1827 4.4695,3.83 1.9368,2.6836 2.6434,5.7311 2.1108,9.1558 -0.2669,1.7161 -0.833,3.3702 -1.6994,4.9693 -0.8654,1.5924 -1.9841,3.0475 -3.3695,4.3652 -1.7023,1.6335 -3.6087,2.9033 -5.7253,3.8024 -2.1166,0.8992 -4.2587,1.3453 -6.4139,1.3453 -2.1277,0 -4.0978,-0.4392 -5.9048,-1.3109 -1.8066,-0.8716 -3.2901,-2.1004 -4.4487,-3.6994 -0.9173,-1.2492 -1.5553,-2.6632 -1.9048,-4.2554 -0.3507,-1.5856 -0.3886,-3.2397 -0.1217,-4.9555zm4.8124 0.302c-0.6051,3.8914 -0.0586,7.1724 1.647,9.8422 0.7683,1.1943 1.6428,2.0591 2.6224,2.6013 0.9795,0.5423 2.1654,0.8168 3.5656,0.8168 1.4069,0 2.6838,-0.2676 3.8309,-0.8031 1.1475,-0.5352 2.2996,-1.4138 3.4542,-2.615 2.5383,-2.6836 4.1096,-5.9918 4.7214,-9.9247 0.3362,-2.1619 0.3651,-4.2004 0.0815,-6.129 -0.2845,-1.9218 -0.8539,-3.5555 -1.7016,-4.9007 -0.6873,-1.098 -1.5235,-1.9011 -2.4954,-2.4022 -0.9722,-0.5011 -2.175,-0.7549 -3.6094,-0.7549 -1.4209,0 -2.6947,0.247 -3.808,0.7412 -1.1142,0.501 -2.2069,1.3041 -3.2652,2.4159 -1.264,1.3317 -2.3339,2.9583 -3.2115,4.8938 -0.8766,1.9286 -1.487,4.0015 -1.8319,6.2184z"/>
    <path id="_426534240" class="fil1" d="M278.646 119.289c-0.8444,0 -1.7545,0.0275 -2.7306,0.0823 -2.0751,0.103 -3.66,0.3637 -4.7343,0.7825 -1.0807,0.4187 -2.0223,1.1324 -2.8402,2.1552 -0.7492,0.9333 -1.4076,2.21 -1.9799,3.8159l-0.4547 -0.0341 1.511 -7.4196 27.2069 0 -0.7971 7.4196 -0.4651 0.0341c-0.0743,-1.8598 -0.4174,-3.2738 -1.0448,-4.2278 -0.6191,-0.9609 -1.631,-1.6473 -3.0417,-2.066 -1.1925,-0.3637 -3.2718,-0.5421 -6.2506,-0.5421l-3.1906 20.515c-0.2124,1.3658 -0.2949,2.3818 -0.2405,3.0475 0.0474,0.6657 0.2503,1.2147 0.5958,1.6404 0.3166,0.3912 0.6986,0.6726 1.1453,0.8441 0.4458,0.1784 1.0545,0.2814 1.8099,0.3227l-0.0715 0.4598 -12.8415 0 0.0714 -0.4598c0.782,-0.0413 1.4293,-0.1443 1.9306,-0.3227 0.5005,-0.1715 0.9698,-0.4529 1.4081,-0.8441 0.478,-0.4257 0.8517,-0.9747 1.104,-1.6266 0.2605,-0.6591 0.4951,-1.6817 0.7094,-3.0613l3.1907 -20.515zm39.122 -0.6178l-0.6959 6.6371 -0.462 0.0138c0.0035,-1.1258 -0.1396,-2.0591 -0.4303,-2.7937 -0.2898,-0.7412 -0.7727,-1.3863 -1.4471,-1.949 -0.5577,-0.4738 -1.2478,-0.8031 -2.0757,-0.9953 -0.8271,-0.199 -1.9515,-0.2951 -3.3724,-0.2951l-4.6054 0 -1.8775 12.0728 1.2078 0c1.2219,0 2.1543,-0.0823 2.7965,-0.2401 0.6367,-0.1649 1.1893,-0.4531 1.6377,-0.8648 0.4383,-0.3912 0.7914,-0.8512 1.0519,-1.3796 0.2608,-0.5286 0.5333,-1.311 0.8171,-2.3405l0.4565 0.0206 -1.7571 10.7689 -0.4598 0c0.0366,-1.0296 -0.0058,-1.86 -0.1481,-2.4916 -0.1349,-0.6313 -0.3743,-1.1668 -0.7247,-1.6059 -0.3307,-0.4325 -0.8102,-0.7481 -1.4174,-0.9472 -0.6144,-0.199 -1.4151,-0.302 -2.4104,-0.302l-1.1461 0 -0.7161 4.6053c-0.2863,1.8395 -0.4465,3.178 -0.4807,4.0153 -0.0408,0.8373 0.0357,1.5374 0.2148,2.107 0.3034,0.9609 0.8868,1.6679 1.7496,2.1209 0.8643,0.4462 2.0575,0.6726 3.588,0.6726 1.6062,0 2.9903,-0.206 4.1376,-0.6107 1.1486,-0.4119 2.1321,-1.0435 2.9521,-1.9014 0.57,-0.5765 1.0636,-1.2353 1.481,-1.9765 0.4163,-0.7346 0.8492,-1.7092 1.2908,-2.9171l0.457 0.0207 -1.5057 8.0028 -23.9879 0 0.0714 -0.4598c0.7683,-0.0413 1.4087,-0.1443 1.9102,-0.3227 0.5004,-0.1715 0.9696,-0.4529 1.4078,-0.8441 0.478,-0.4257 0.8517,-0.9747 1.1065,-1.6404 0.2601,-0.6589 0.4935,-1.6748 0.707,-3.0475l2.3048 -14.8183c0.2134,-1.3728 0.296,-2.3885 0.2407,-3.0473 -0.0477,-0.666 -0.2505,-1.215 -0.5962,-1.6406 -0.3029,-0.391 -0.6775,-0.6726 -1.1247,-0.8442 -0.4458,-0.1784 -1.0612,-0.2814 -1.8303,-0.3224l0.0715 -0.46 21.6132 0zm28.7943 -0.1441l-1.1593 8.9981 -0.4598 0c-0.0834,-0.3912 -0.154,-0.6864 -0.2054,-0.8854 -0.2661,-1.2904 -0.502,-2.2444 -0.6991,-2.8758 -0.3453,-1.1326 -0.9404,-2.1621 -1.7892,-3.1023 -0.6383,-0.707 -1.3397,-1.2287 -2.0924,-1.5511 -0.7528,-0.3227 -1.6344,-0.4805 -2.6363,-0.4805 -1.517,0 -2.886,0.3293 -4.1003,0.9882 -1.0632,0.5699 -2.1053,1.4002 -3.117,2.4778 -1.0119,1.0776 -1.8971,2.313 -2.6471,3.6926 -1.0639,1.9424 -1.792,4.1524 -2.1774,6.6301 -0.3276,2.1073 -0.3615,4.0015 -0.1023,5.69 0.2587,1.6883 0.8075,3.1023 1.6326,4.2416 1.5232,2.1208 3.8093,3.1778 6.8703,3.1778 1.5306,0 2.9448,-0.2676 4.249,-0.7962 1.2968,-0.5284 2.3602,-1.2767 3.1824,-2.2376 0.9485,-1.1117 1.7453,-2.615 2.3887,-4.5023l0.4471 0.0823c-0.5827,2.1139 -1.4218,3.8025 -2.5142,5.0447 -1.0437,1.1943 -2.3663,2.1071 -3.9731,2.7317 -1.6085,0.6314 -3.4008,0.9472 -5.3843,0.9472 -1.8463,0 -3.5745,-0.2745 -5.1776,-0.8238 -2.5597,-0.8852 -4.4112,-2.4845 -5.5682,-4.7975 -1.1582,-2.3061 -1.4841,-5.0653 -0.9855,-8.2706 0.381,-2.4501 1.1724,-4.7152 2.3791,-6.7812 1.2079,-2.0726 2.7027,-3.7405 4.4766,-4.9965 1.3723,-0.9678 2.947,-1.7365 4.7307,-2.3061 1.7842,-0.5697 3.53,-0.8513 5.232,-0.8513 1.62,0 3.2879,0.3089 5.0037,0.9267l1.5629 0.5422c0.3045,0.1167 0.5763,0.1784 0.8166,0.1784 0.3362,0 0.632,-0.1372 0.8886,-0.4185 0.1173,-0.1374 0.2614,-0.3571 0.4467,-0.6658l0.4815 -0.0069zm9.4541 12.9104l14.2829 0 1.0034 -6.4518c0.2157,-1.3866 0.2981,-2.4022 0.2428,-3.0611 -0.0497,-0.6522 -0.2525,-1.2012 -0.598,-1.6268 -0.3167,-0.391 -0.6984,-0.6726 -1.1453,-0.8442 -0.4527,-0.1784 -1.0614,-0.2814 -1.8306,-0.3224l0.0715 -0.46 12.8418 0 -0.0715 0.46c-0.7683,0.041 -1.402,0.144 -1.9102,0.3224 -0.5002,0.1716 -0.9698,0.4532 -1.408,0.8442 -0.478,0.4256 -0.8517,0.9746 -1.106,1.6406 -0.2606,0.6588 -0.494,1.6745 -0.7075,3.0473l-2.3048 14.8183c-0.2134,1.3727 -0.2949,2.3818 -0.2394,3.0406 0.0497,0.652 0.2514,1.2079 0.5949,1.6473 0.3187,0.3774 0.7017,0.6519 1.1464,0.8372 0.4527,0.1784 1.0534,0.2883 1.8088,0.3296l-0.0714 0.4598 -12.8418 0 0.0715 -0.4598c0.782,-0.0413 1.4237,-0.1512 1.9319,-0.3296 0.5024,-0.1853 0.9707,-0.4598 1.4069,-0.8372 0.4778,-0.4257 0.8515,-0.9747 1.104,-1.6266 0.2603,-0.6591 0.4949,-1.6817 0.7093,-3.0613l1.1539 -7.4194 -14.2829 0 -1.1539 7.4194c-0.2135,1.3727 -0.296,2.3886 -0.2406,3.0475 0.0475,0.6657 0.2504,1.2147 0.5961,1.6404 0.3049,0.3774 0.681,0.6519 1.1258,0.8372 0.4527,0.1784 1.06,0.2883 1.836,0.3296l-0.0714 0.4598 -12.8484 0 0.0714 -0.4598c0.782,-0.0413 1.4236,-0.1512 1.9318,-0.3296 0.5026,-0.1853 0.9637,-0.4598 1.3862,-0.8372 0.4918,-0.4257 0.8655,-0.9747 1.118,-1.6266 0.2466,-0.6591 0.48,-1.6748 0.6955,-3.0613l2.3048 -14.8183c0.2157,-1.3866 0.298,-2.4022 0.2565,-3.0611 -0.0497,-0.6522 -0.2525,-1.2012 -0.612,-1.6268 -0.303,-0.391 -0.6775,-0.6726 -1.1382,-0.8442 -0.4529,-0.1784 -1.0614,-0.2814 -1.8168,-0.3224l0.0714 -0.46 12.8485 0 -0.0715 0.46c-0.7751,0.041 -1.4087,0.144 -1.9171,0.3224 -0.5002,0.1716 -0.9695,0.4532 -1.4078,0.8442 -0.478,0.4256 -0.8517,0.9746 -1.1062,1.6406 -0.2603,0.6588 -0.4938,1.6745 -0.7072,3.0473l-1.0035 6.4518z"/>
   </g>
   <g>
    <path id="_426533640" class="fil2" d="M146.868 171.199c0,-4.5592 -0.1628,-8.9659 -3.2137,-12.5017 -0.6308,-0.7313 -0.9415,-1.0146 -1.774,-1.5654 -1.8712,-1.2378 -3.9815,-2.0049 -6.1298,-2.7102 -2.8169,-0.9249 -5.8775,-1.4836 -8.6645,-2.5325l-1.1699 -0.4019c-0.3974,-0.1299 -0.1014,-0.025 -0.5761,-0.2095 -2.8902,-1.1232 -5.9689,-2.6453 -7.8267,-5.1385l-0.8706 -1.0942c-0.6656,-0.6397 -3.8369,-0.5523 -8.516,-3.8599 -0.4949,-0.3499 -0.4121,-0.3221 -0.8444,-0.7269l-0.4148 -0.371c-0.2125,-0.1859 -0.2123,-0.1755 -0.4176,-0.3683l-7.4047 -7.5251c-0.0302,-0.0269 -0.0738,-0.0652 -0.1038,-0.0925l-1.3498 -1.204c-0.3407,-0.2659 -0.5481,-0.3691 -0.9349,-0.6367l-0.9111 -0.6605c-0.3775,-0.2371 -0.6035,-0.346 -1.0074,-0.5641 -1.4567,-0.7863 -4.6706,-1.1109 -6.8031,-1.4475 0.426,0.6362 0.9585,1.0288 1.4977,1.6455l0.1831 0.2097c0.8531,0.952 -0.6794,-0.7251 0.1872,0.2058 0.9077,0.975 1.6859,1.9687 2.3736,3.1269 2.4457,4.1193 2.5155,5.3852 4.1385,8.63 0.7422,1.4836 1.5629,2.665 2.4641,4.0188 0.2457,0.3692 0.3605,0.5583 0.6531,0.9184l3.7179 3.7469c0.8524,0.722 1.6077,1.3208 2.61,1.9081l0.2476 0.1455c2.5754,1.5116 5.4174,2.7868 8.4469,3.3394 1.849,0.3374 3.601,0.6662 5.4882,0.7982l2.9313 0.4081c1.5397,0.1963 6.3669,1.2796 7.74,1.6893l2.5028 0.8367c0.3332,0.1141 0.8137,0.2845 1.1527,0.419 0.0443,0.0174 0.0954,0.039 0.1397,0.0566l3.129 1.3891c0.3782,0.2084 0.5995,0.3808 0.9824,0.5894 1.0552,0.5745 2.0116,1.2053 2.9213,1.9895 0.4277,0.3687 1.2833,1.084 1.9987,1.9304 0.1872,0.2216 0.1496,0.1713 0.3598,0.426 0.7597,0.92 1.3903,1.9107 1.9543,2.9567 0.4005,0.7429 0.4952,1.7738 1.113,2.2264z"/>
    <path id="_426534072" class="fil2" d="M153.155 166.092c1.1831,0 2.4476,-0.1882 2.8914,-1.4302 1.0237,-2.8634 0.529,-4.9629 -0.4093,-7.7311 -0.4698,-1.3866 -1.1995,-2.8332 -2.0034,-3.8898 -1.4548,-1.9124 -0.9504,-1.4731 -2.8172,-3.0762l-0.7613 -0.6139c-0.3803,-0.2708 -0.552,-0.3622 -0.9877,-0.5838 -3.0088,-1.5304 -6.7124,-1.628 -9.7706,-2.2123 -0.8926,-0.1705 -1.8733,-0.1072 -2.8441,-0.1025 -1.568,0.0074 -3.3116,-0.3453 -5.5031,-0.3903 -1.0195,-0.0211 -2.716,-0.4174 -3.7202,-0.7979l-1.1838 -0.3879c0.246,0.9211 1.9669,2.5418 2.7012,3.1921 1.6072,1.4232 4.0773,2.8274 6.0249,3.6007l3.5367 1.1782c0.0603,0.0202 0.2276,0.0845 0.2861,0.1065l1.3765 0.5882c1.9314,0.8422 1.0274,0.3958 2.8903,1.6276 1.2153,0.8037 2.1253,1.6696 3.1165,2.7771 0.7288,0.8139 1.31,1.7573 1.9023,2.6157 1.0666,1.5458 2.0576,4.0977 4.0697,5.1632 0.306,0.1619 0.7151,0.3666 1.2051,0.3666z"/>
    <path id="_426534384" class="fil2" d="M112.491 135.447c0.1898,0.8141 0.8455,1.9394 1.297,2.632l1.3849 2.5437c0.3021,0.602 0.3836,0.6914 0.7379,1.2269l0.8109 1.3499 1.8079 1.9243c1.0023,0.9715 2.2063,1.7478 3.387,2.5063 0.9638,0.619 2.9413,1.4715 4.0759,1.8174l3.1963 0.7328c-0.5545,-0.482 -0.9213,-0.4764 -1.5299,-0.8277 -0.8638,-0.4986 -1.6325,-0.8986 -2.4007,-1.528 -1.4425,-1.1824 -1.4393,-1.1393 -2.6752,-2.6288 -0.026,-0.0314 -0.0636,-0.0757 -0.0896,-0.1068 -1.5789,-1.8833 -1.9773,-2.6863 -3.1269,-4.9274 0.7661,0.2047 1.9206,1.3703 4.4875,2.3882 1.5654,0.6209 3.8371,1.1406 5.6088,1.4629l3.1124 0.4237c1.8125,0.2515 7.8541,0.3429 9.9606,0.6475 3.2975,0.4768 3.6984,0.5119 6.7256,2.1142 0.4677,0.2478 0.6995,0.3622 1.1039,0.664l1.2 0.9611c1.8024,1.4378 1.9474,1.8499 3.269,3.41 1.0596,1.2505 1.9383,2.8694 2.7663,4.3056l0.6618 1.1062c-0.0604,-2.7076 -3.4915,-9.1518 -5.7943,-11.2963 -1.0162,-0.9469 0.8272,0.7538 -0.2088,-0.184 -2.9794,-2.6972 -5.8884,-4.4504 -10.4975,-4.4321 -1.3102,0.0051 -2.6207,-0.0048 -3.9309,0.0019 -1.5914,0.0081 -2.3386,-0.2125 -3.9267,-0.1984 -1.1258,0.0098 -4.7307,-0.1192 -5.6548,-0.4352 -2.1564,-0.7374 -2.3068,-0.7437 -4.1291,-1.9606 -0.8981,-0.5998 -1.532,-1.0627 -2.526,-1.5993 -0.5383,-0.2905 -0.7283,-0.472 -1.2151,-0.7495 -0.4369,-0.2489 -0.9754,-0.5113 -1.4369,-0.7239 -1.9097,-0.8788 -2.8573,-1.0134 -4.8798,-1.0134 -0.8518,0 -0.6063,0.3125 -1.5715,0.3928z"/>
    <path id="_426534288" class="fil3" d="M126.831 105.39c0.0387,0.0088 0.0921,0.0056 0.1076,0.0513 0.0722,0.2121 1.5151,0.2076 1.6604,0.2114l0.3139 -0.7346c0.2975,0.5694 0.3733,0.1325 1.2838,-0.0214 1.1601,-0.1965 4.5325,-0.7642 5.0571,-1.4712 0.0234,-1.0782 -0.0367,-0.3893 0.2206,-0.5742 0.1977,0.238 0.0954,0.1763 0.3369,0.4255 0.3622,0.374 -0.0041,0.1796 0.5875,0.4601l0.0594 -0.4652 1.7931 -0.0406 0.5626 -1.1441c0.761,1.0482 -0.6237,-0.4223 0.1747,0.7438 0.2302,0.3365 0.5121,0.3439 1.004,0.5947 -0.1991,-1.2615 -3.9562,-6.9689 -4.8421,-8.1221 -0.025,-0.0325 -0.0628,-0.0763 -0.0881,-0.1083l-0.9631 -1.3942 -1.0546 1.1062c-2.1176,2.8051 -3.7042,5.8042 -5.4181,8.7251 -0.5659,0.9643 -0.6501,0.946 -0.7956,1.7578z"/>
    <path id="_426566016" class="fil4" d="M144.904 120.018c0,1.5775 0.1037,1.3323 0,3.249 -1.0031,0 -2.0564,0.1083 -2.7625,-0.1845 -0.7564,-0.3137 -1.2715,-0.7907 -1.7557,-1.4244l-0.5738 0.0731c-0.2473,1.3144 0.0225,1.7636 1.0884,2.2576 0.3625,0.1677 0.5455,0.2204 0.9778,0.2603l-0.7077 0.394c-0.4882,-0.3529 -0.4471,-0.2585 -0.8431,-0.4172 -0.2857,-0.1146 -0.3221,-0.1292 -0.7274,-0.3687l-0.1239 0.3696c-0.1752,0.3495 -0.0193,0.1181 -0.1576,0.2926 -0.2819,0.3559 0.5576,0.1638 -0.5044,0.2585l0.1499 -1.039 -0.8891 0.3573c-0.9265,0.5037 -0.2968,0.0211 -1.832,0.5504 -2.3757,0.819 -1.0195,-0.3666 -2.5929,0.7192 -0.8297,0.5724 -0.6812,0.155 -1.5454,0.449l-1.3121 0.481c-2.4659,0.5918 -1.9768,1.3828 -2.5864,0.0515 -0.9336,0.9629 -1.5206,-0.126 -1.5714,-0.258 -0.4411,0.4935 -0.3873,0.5482 -0.958,0.5853l-0.1098 0.3467c0.5457,0.3508 0.988,0.809 1.2481,1.3153 0.5487,0.3209 0.8584,0.6875 1.3183,1.2181 0.368,0.1594 0.4425,0.2381 0.8327,0.3197 1.1666,-0.8195 1.1559,0.2207 3.0622,-0.8125l0.9515 -0.4265c0.9546,-0.5129 0.6193,-1.0004 1.665,-0.9633 1.1933,0.0422 1.0766,0.2729 2.2838,-0.2072l2.8775 -0.852c0.3448,-0.1304 4.729,-1.3127 4.9905,-1.226l0.5376 0.3258c0.1455,-0.8385 -0.1949,-0.265 0.4873,-0.4578l0.3522 -0.2199 -0.4434 -1.1808c0.0171,0.0065 0.4148,0.1253 0.7949,0.6627 0.4489,0.6343 0.1174,-0.4112 0.1478,0.3215 0.164,-0.0686 0.5443,0.2961 0.4072,-1.5652 -0.0615,-0.8338 -0.158,-0.8496 -0.2112,-1.7749 -0.077,-1.3397 -0.3944,-2.2954 -0.59,-3.5344 -0.5297,0.6406 -0.5406,1.2355 -0.5172,1.8792l-0.8577 0.1749z"/>
    <path id="_426565968" class="fil5" d="M145.822 125.255c-0.0743,2.3165 -0.5803,-0.5587 -0.8539,2.1065l-2.09 0.4163c-0.0466,0.0157 -0.097,0.035 -0.1434,0.051 -0.0466,0.016 -0.0968,0.0364 -0.1434,0.0527l-1.3195 0.4397c-0.4503,0.1304 -0.7056,0.1041 -1.0044,0.1935 -1.0782,0.322 0.1213,0.5997 -2.1968,0.8872 -0.4424,0.0548 -1.0696,0.436 -1.6366,0.5763 -1.43,0.3539 -0.8388,0.2597 -1.5182,0.1966 -0.7478,-0.0694 -1.7287,0.3849 -2.5946,0.5977 -0.6462,0.1587 -0.1335,-0.1513 -0.7536,0.1559l0.4385 0.6287 0.9162 0.4151 2.2444 0.374c1.3615,0.1687 2.7401,0.1532 4.038,-0.0496 1.2532,-0.1958 2.5462,-0.936 3.553,-0.8968 0.0383,-0.0441 0.1034,-0.1668 0.1174,-0.1304 0.0127,0.0339 0.0865,-0.0995 0.1018,-0.1262l0.1597 -0.3547c0.2273,0.0095 0.7382,0.0587 0.9424,-0.0077l0.629 -0.5269c0.4274,1.0441 -0.1879,0.4035 0.655,0.6745 0.5026,-0.8019 0.8112,-1.6232 1.0743,-2.5926 0.6907,-2.5427 0.1564,-1.8365 0.6645,-3.1481l-0.4283 -0.3492c-0.0304,-0.7327 0.3011,0.3128 -0.1478,-0.3215 -0.3801,-0.5374 -0.7778,-0.6562 -0.7949,-0.6627l0.4434 1.1808 -0.3522 0.2199z"/>
    <path id="_426565800" class="fil6" d="M121.724 118.159c-0.4253,0.3798 -0.4388,1.7255 -0.5893,2.3348 0.3703,0.3111 0.3515,-0.0167 0.393,1.2842 0.0399,-0.0464 0.0863,-0.1884 0.104,-0.1515 0.1566,0.3302 -0.0704,0.0237 0.4853,-0.603 -0.0246,0.0014 -0.3594,-0.3905 0.0845,0.4192l0.2292 0.3392c0.7455,-0.8946 0.2553,-0.8679 1.1954,-0.6563 0.8292,0.1867 0.6659,-0.1082 1.0446,0.9438 0.9037,-1.329 0.0123,-0.5937 3.68,-1.623l0.701 -0.2751c0.9151,-0.3662 2.1584,-0.5228 2.7046,-0.8186 0.6307,-0.3415 -0.4044,-0.1313 0.7759,-0.4046 0.5039,-0.117 1.542,-0.0713 2.0933,-0.1782 0.9575,-0.1854 -0.1378,-0.1427 0.6928,-0.1854 0.4608,-0.0237 0.1886,-0.0035 0.4074,0.0617l0.2757 0.1227c0.4457,0.1727 2.0383,0.3007 2.6158,0.3724 -0.1961,-0.7756 -0.2418,-0.2046 0.27,0.0815 0.1397,0.0782 0.027,0.1183 0.5167,0.2097l0 -1.5253 -0.948 -0.0886c-2.6508,0.1218 -2.1139,-0.9494 -3.7838,-0.4272l-0.3468 -1.5714 -0.5423 0.6751c-0.0171,-0.0348 -0.0594,0.1017 -0.0988,0.1451l-0.0924 -0.9597c-0.5749,0.8562 -0.2786,0.6167 -1.2348,0.7914 -0.9798,0.1789 -0.3986,0.1583 -1.255,0.4924 -1.3824,0.5392 -0.1461,-0.4318 -2.1362,0.59 -0.0413,0.0211 -0.0877,0.0511 -0.1311,0.0706 -0.474,0.2118 -1.2749,0.1962 -2.4464,0.5171 -0.0541,0.0149 -0.1053,0.0262 -0.161,0.0397 -1.7263,0.413 -1.6527,0.5766 -2.2003,0.7123 -0.5647,0.1401 -1.158,0.1021 -1.8459,0.2473 -0.1365,-0.9308 -0.0831,-0.6939 -0.4571,-0.9823z"/>
    <path id="_426565728" class="fil7" d="M121.134 120.494c-0.0149,0.7011 -0.4003,4.3462 -0.1778,5.1216 0.1989,0.6933 -0.2382,0.1935 0.3734,0.5988l0 -0.7849c0.0002,0.0005 -0.0376,0.3958 0.709,-0.042 1.4847,-0.8708 -0.0392,-2.474 1.0868,-3.4244l0.9309 1.9669 0.6137 0.1322c0.3169,-0.5643 0.1097,-0.6021 0.7904,-0.8067l1.4671 -0.2945c1.5016,-0.2591 0.5603,0.5713 2.0068,-0.9007 0.6946,0 0.8907,0.0495 1.4905,-0.1236 0.3631,-0.1049 -0.0961,0.0229 0.2844,-0.104l1.0504 -0.3336c0.5666,-0.174 0.8905,-0.1643 1.4399,-0.3311 0.0663,-0.02 0.4199,-0.1798 0.542,-0.2457 0.4341,-0.2351 0.1392,-0.1847 0.6181,-0.3172l1.7691 -0.3935c1.1416,-0.1183 -0.0649,-0.0617 0.652,0.1142 1.3339,0.3271 1.9195,-0.2905 2.8181,0.8942l0.213 0.512 0.5738 -0.0731c-0.1861,-0.3118 -0.3436,-0.606 -0.509,-1.0264 -0.2058,-0.523 -0.2193,-0.8156 -0.4734,-1.1998 -0.4897,-0.0914 -0.377,-0.1315 -0.5167,-0.2097 -0.5118,-0.2861 -0.4661,-0.8571 -0.27,-0.0815 -0.5775,-0.0717 -2.1701,-0.1997 -2.6158,-0.3724l-0.2757 -0.1227c-0.2188,-0.0652 0.0534,-0.0854 -0.4074,-0.0617 -0.8306,0.0427 0.2647,0 -0.6928,0.1854 -0.5513,0.1069 -1.5894,0.0612 -2.0933,0.1782 -1.1803,0.2733 -0.1452,0.0631 -0.7759,0.4046 -0.5462,0.2958 -1.7895,0.4524 -2.7046,0.8186l-0.701 0.2751c-3.6677,1.0293 -2.7763,0.294 -3.68,1.623 -0.3787,-1.052 -0.2154,-0.7571 -1.0446,-0.9438 -0.9401,-0.2116 -0.4499,-0.2383 -1.1954,0.6563l-0.2292 -0.3392c-0.4439,-0.8097 -0.1091,-0.4178 -0.0845,-0.4192 -0.5557,0.6267 -0.3287,0.9332 -0.4853,0.603 -0.0177,-0.0369 -0.0641,0.1051 -0.104,0.1515 -0.0415,-1.3009 -0.0227,-0.9731 -0.393,-1.2842z"/>
    <path id="_426565320" class="fil8" d="M121.92 117.177c0,0.4829 0.0657,-0.0216 -0.1965,0.1975l0 0.7847c0.374,0.2884 0.3206,0.0515 0.4571,0.9823 0.6879,-0.1452 1.2812,-0.1072 1.8459,-0.2473 0.5476,-0.1357 0.474,-0.2993 2.2003,-0.7123 0.0557,-0.0135 0.1069,-0.0248 0.161,-0.0397 1.1715,-0.3209 1.9724,-0.3053 2.4464,-0.5171 0.0434,-0.0195 0.0898,-0.0495 0.1311,-0.0706 1.9901,-1.0218 0.7538,-0.0508 2.1362,-0.59 0.8564,-0.3341 0.2752,-0.3135 1.255,-0.4924 0.9562,-0.1747 0.6599,0.0648 1.2348,-0.7914l0.0924 0.9597c0.0394,-0.0434 0.0817,-0.1799 0.0988,-0.1451l0.5423 -0.6751 0.3468 1.5714c1.6699,-0.5222 1.133,0.549 3.7838,0.4272 -0.2547,-0.8362 0.2821,-0.1875 -0.8021,-0.4487 -0.6566,-0.158 -1.7193,-0.3532 -2.2882,-0.6759 -0.3227,-0.1833 -0.1566,-0.0873 -0.3847,-0.3021 0.0209,-0.6432 -0.0155,-1.5722 0.1938,-2.1694 0.1322,-0.3773 0.2074,-0.4197 0.2378,-0.4589l0.0353 -0.5137c-0.4921,-0.4105 -0.3031,-0.3228 -0.1701,-0.6109l-1.248 0.4408c-0.8587,0.2893 -0.6803,0.0513 -2.1416,0.5893l-1.3241 0.3645c0.2209,-0.1828 0.0362,-0.328 0.1923,-0.0155 0.1622,0.3241 0.1835,-0.1545 0.0042,0.3889l-1.768 0.1965 -0.3346 1.0798c-2.2805,0.1316 -1.248,0.0861 -2.4986,0.6253 -0.4487,0.1937 0.1053,0.0466 -0.3135,0.0923 -0.6895,0.0755 0.5645,-0.1839 -0.4932,-0.0331 -0.0451,0.0065 -0.6318,0.2338 -0.7625,0.2972l-0.9044 0.4508c-0.7689,0.2991 -0.7647,0.0677 -1.5677,0.4548l-0.1975 -0.3938z"/>
    <path id="_426565632" class="fil9" d="M142.757 131.4l-1.2543 1.285c-0.2743,0.5025 0.0111,0.0747 -0.2921,0.413 -0.1518,0.1693 -0.1664,0.1654 -0.3323,0.2972 -0.1234,0.0981 -0.4517,0.316 -0.6865,0.4842 -0.4676,0.3348 -0.8316,0.5956 -1.4388,0.9223 -0.9406,0.5058 -2.2812,0.8629 -3.4759,0.9176 -0.0592,0.0395 -0.1306,0.0729 -0.1905,0.0963 -1.3585,0.536 -1.5988,0.0251 -2.649,0.2012l-0.8334 0.2742 0.4028 1.0214 -0.3812 -0.1657c-0.5868,-0.21 0.4501,0.0617 -0.3601,-0.1253 -0.3668,-0.0847 -0.0485,-0.1007 -0.4657,-0.035l-1.0213 0.6211c1.5005,0.2369 3.4796,0.7777 5.2536,0.5406 2.3743,-0.3174 4.526,-0.8903 6.2936,-2.3504 0.6464,-0.5338 0.9719,-0.7696 1.5687,-1.3782 0.3273,-0.3336 0.3756,-0.4048 0.6345,-0.7403 0.6961,-0.9024 1.1562,-1.1812 1.8332,-2.7506 -0.8429,-0.271 -0.2276,0.3696 -0.655,-0.6745l-0.629 0.5269c-0.2042,0.0664 -0.7151,0.0172 -0.9424,0.0077l-0.1597 0.3547c-0.0153,0.0267 -0.0891,0.1601 -0.1018,0.1262 -0.014,-0.0364 -0.0791,0.0863 -0.1174,0.1304z"/>
    <path id="_426565296" class="fil10" d="M128.966 129.875c0.2239,0.3119 0.0279,0.0979 0.3228,0.3506 0.0712,0.061 0.2935,0.2195 0.3626,0.2661 0.2063,0.139 0.3988,0.2058 0.6153,0.3952l1.7388 0.6707 -0.4385 -0.6287c0.6201,-0.3072 0.1074,0.0028 0.7536,-0.1559 0.8659,-0.2128 1.8468,-0.6671 2.5946,-0.5977 0.6794,0.0631 0.0882,0.1573 1.5182,-0.1966 0.567,-0.1403 1.1942,-0.5215 1.6366,-0.5763 2.3181,-0.2875 1.1186,-0.5652 2.1968,-0.8872 0.2988,-0.0894 0.5541,-0.0631 1.0044,-0.1935l1.3195 -0.4397c0.0466,-0.0163 0.0968,-0.0367 0.1434,-0.0527 0.0464,-0.016 0.0968,-0.0353 0.1434,-0.051l2.09 -0.4163c0.2736,-2.6652 0.7796,0.21 0.8539,-2.1065 -0.6822,0.1928 -0.3418,-0.3807 -0.4873,0.4578l-0.5376 -0.3258c-0.2615,-0.0867 -4.6457,1.0956 -4.9905,1.226l-2.8775 0.852c-1.2072,0.4801 -1.0905,0.2494 -2.2838,0.2072 -1.0457,-0.0371 -0.7104,0.4504 -1.665,0.9633l-0.9515 0.4265c-1.9063,1.0332 -1.8956,-0.007 -3.0622,0.8125z"/>
    <path id="_426565560" class="fil11" d="M124.653 125.13l0.345 1.0408c0.0422,0.0381 0.1025,0.045 0.1232,0.1184 0.1139,0.4058 0.0617,0.0768 0.2359,0.2018 0.2476,0.1773 0.0889,0.0822 0.3198,0.1842 0.5707,-0.0371 0.5169,-0.0918 0.958,-0.5853 0.0508,0.132 0.6378,1.2209 1.5714,0.258 0.6096,1.3313 0.1205,0.5403 2.5864,-0.0515l1.3121 -0.481c0.8642,-0.294 0.7157,0.1234 1.5454,-0.449 1.5734,-1.0858 0.2172,0.0998 2.5929,-0.7192 1.5352,-0.5293 0.9055,-0.0467 1.832,-0.5504l0.8891 -0.3573 -0.1499 1.039c1.062,-0.0947 0.2225,0.0974 0.5044,-0.2585 0.1383,-0.1745 -0.0176,0.0569 0.1576,-0.2926l0.1239 -0.3696c0.4053,0.2395 0.4417,0.2541 0.7274,0.3687 0.396,0.1587 0.3549,0.0643 0.8431,0.4172l0.7077 -0.394c-0.4323,-0.0399 -0.6153,-0.0926 -0.9778,-0.2603 -1.0659,-0.494 -1.3357,-0.9432 -1.0884,-2.2576l-0.213 -0.512c-0.9575,0.3146 -0.2742,-0.4367 -0.7849,0.5912 -0.7715,-0.3135 -0.7958,-0.5258 -1.4327,0.0053l-0.3815 0.4076c-0.8051,0.788 -1.2795,0.5318 -2.0802,0.6806 -0.262,0.0487 -0.2901,0.0814 -0.4555,0.1373l-2.004 0.5638c-0.055,0.0151 -0.1053,0.0281 -0.1621,0.0418 -0.4485,0.1081 -0.5891,0.087 -0.9799,0.2132l-2.8907 0.8383c-0.0404,0.0169 -0.0891,0.0455 -0.1283,0.0638l-0.4991 0.2576c-0.8759,0.3656 -2.2415,0.3556 -3.1473,0.1097z"/>
    <path id="_426564936" class="fil12" d="M124.057 123.93c0.1197,0.5424 0.0225,0.3127 0.2153,0.7276l0.381 0.4726c0.9058,0.2459 2.2714,0.2559 3.1473,-0.1097l0.4991 -0.2576c0.0392,-0.0183 0.0879,-0.0469 0.1283,-0.0638l2.8907 -0.8383c0.3908,-0.1262 0.5314,-0.1051 0.9799,-0.2132 0.0568,-0.0137 0.1071,-0.0267 0.1621,-0.0418l2.004 -0.5638c0.1654,-0.0559 0.1935,-0.0886 0.4555,-0.1373 0.8007,-0.1488 1.2751,0.1074 2.0802,-0.6806l0.3815 -0.4076c0.6369,-0.5311 0.6612,-0.3188 1.4327,-0.0053 0.5107,-1.0279 -0.1726,-0.2766 0.7849,-0.5912 -0.8986,-1.1847 -1.4842,-0.5671 -2.8181,-0.8942 -0.7169,-0.1759 0.4896,-0.2325 -0.652,-0.1142l-1.7691 0.3935c-0.4789,0.1325 -0.184,0.0821 -0.6181,0.3172 -0.1221,0.0659 -0.4757,0.2257 -0.542,0.2457 -0.5494,0.1668 -0.8733,0.1571 -1.4399,0.3311l-1.0504 0.3336c-0.3805,0.1269 0.0787,-0.0009 -0.2844,0.104 -0.5998,0.1731 -0.7959,0.1236 -1.4905,0.1236 -1.4465,1.472 -0.5052,0.6416 -2.0068,0.9007l-1.4671 0.2945c-0.6807,0.2046 -0.4735,0.2424 -0.7904,0.8067l-0.6137 -0.1322z"/>
    <path id="_426564648" class="fil13" d="M122.902 114.427c-0.3787,0.8515 -0.6926,1.8019 -0.9822,2.7501l0.1975 0.3938c0.803,-0.3871 0.7988,-0.1557 1.5677,-0.4548l0.9044 -0.4508c0.1307,-0.0634 0.7174,-0.2907 0.7625,-0.2972 1.0577,-0.1508 -0.1963,0.1086 0.4932,0.0331 0.4188,-0.0457 -0.1352,0.1014 0.3135,-0.0923 1.2506,-0.5392 0.2181,-0.4937 2.4986,-0.6253l0.3346 -1.0798 1.768 -0.1965c0.1793,-0.5434 0.158,-0.0648 -0.0042,-0.3889 -0.1561,-0.3125 0.0286,-0.1673 -0.1923,0.0155l1.3241 -0.3645c1.4613,-0.538 1.2829,-0.3 2.1416,-0.5893l1.248 -0.4408c-0.133,0.2881 -0.322,0.2004 0.1701,0.6109l-0.0388 -0.616 -0.0216 -1.9237c-0.3823,0.6248 0.0627,0.0919 -1.7519,0.8933 -0.3676,0.1622 -0.0328,0.0554 -0.4177,0.1608 -0.7782,0.2132 -0.6392,-0.0126 -1.4404,0.3364 -2.2835,0.9947 -1.5327,0.2589 -2.8538,0.7251 -0.5518,0.1948 -0.442,0.2505 -1.2439,0.4491l-0.7719 0.2239c-0.0452,0.0177 -0.0928,0.0444 -0.1376,0.0625 -0.7195,0.29 -0.9111,0.2116 -2.0995,0.2976 -0.0318,0.0397 -0.0608,0.065 -0.0729,0.1344l-0.2262 0.3478c-0.2223,0.2287 0.0533,0.122 -0.3856,0.2153l-0.2339 0.0132c-0.7112,0.0033 -0.1833,-0.097 -0.8494,-0.1429z"/>
    <path id="_426564456" class="fil14" d="M126.831 105.39c-0.6506,0.345 -0.2079,0.1325 -0.4292,0.5399 -0.1627,0.2993 -0.2541,0.5244 -0.4571,0.9318 -0.2745,0.5511 -0.6239,1.1641 -0.6854,1.813l1.1633 0.6453 0.4597 -1.3077c0.3097,0.0619 0.1619,0.1162 0.3441,0.1784 0.2647,0.0903 1.7953,-0.1148 2.6229,-0.3638l1.4479 -0.503c0.9143,-0.2689 0.7842,-0.0186 1.954,-0.4316l2.0901 -0.525c0.1536,0.6977 0.0849,1.0494 0.454,1.7728l-0.5415 -4.7146c-0.5246,0.707 -3.897,1.2747 -5.0571,1.4712 -0.9105,0.1539 -0.9863,0.5908 -1.2838,0.0214l-0.3139 0.7346c-0.1453,-0.0038 -1.5882,0.0007 -1.6604,-0.2114 -0.0155,-0.0457 -0.0689,-0.0425 -0.1076,-0.0513z"/>
    <path id="_426564504" class="fil2" d="M107.187 138.197c-0.3858,-1.6561 -0.5566,-2.5886 -1.2789,-4.0251 -0.7554,-1.5028 -0.622,-1.271 -1.4696,-2.4591l-2.6272 -3.2662c-1.08,-1.2629 -1.8909,-2.0596 -3.2677,-2.8218 0.3327,0.4967 0.184,0.2146 0.3939,0.7847 0.1527,0.4148 0.2198,0.6559 0.362,1.0132 1.7476,4.3933 0.3392,2.7409 2.8313,5.2228l1.8604 2.0684c0.1677,0.1843 0.1223,0.1265 0.2823,0.307l0.3615 0.4244c0.4079,0.4819 0.7012,0.8986 1.1214,1.4322 0.1418,0.1798 0.1213,0.1478 0.265,0.3244 0.6522,0.8021 0.4839,0.8132 1.1656,0.9951z"/>
    <path id="_426564384" class="fil2" d="M148.244 173.164c0,2.7571 -0.0707,1.8024 1.3752,5.1075l0.3928 0c1.391,-1.9123 1.5715,-1.7258 1.5715,-2.9467 0,-2.48 -1.378,-6.6209 -2.7501,-8.8399 0,0.893 -0.5894,4.052 -0.5894,6.6791z"/>
    <path id="_426564720" class="fil15" d="M124.474 110.498c-0.6819,0.3617 -0.2281,0.0877 -0.4448,0.706 -0.1576,0.449 -0.2432,0.6381 -0.3411,1.2585l1.3752 0.5348c0.497,-0.6641 0.1142,-0.4687 0.993,-0.7272l1.0518 -0.3141c0.7752,-0.2207 1.5763,-0.313 2.4724,-0.6652 2.0589,-0.8093 2.9747,-0.6887 4.665,-1.4548l0.7726 -0.1617c0.413,0.0028 0.3696,-0.0306 0.7228,0.2114 -0.1121,-0.6191 -0.2972,-1.3316 -0.207,-1.9671l-1.3791 0.2536c-2.4882,0.7573 -3.7669,0.3483 -4.604,0.9339 -1.8427,1.2891 -1.2889,0.3587 -3.2214,1.1146 -0.041,0.016 -0.0914,0.0392 -0.132,0.0561 -0.1058,0.0439 -0.5153,0.2284 -0.5529,0.243 -0.8455,0.3281 -0.4007,0.1659 -1.1705,-0.0218z"/>
    <path id="_426564888" class="fil16" d="M135.254 103.426l0.5415 4.7146 0.1003 2.2098 -0.0374 0.4149c0.4053,-0.3059 0.5067,-0.3757 0.79,-0.2444 0.7546,0.3499 -0.1058,-0.0401 0.4038,0.3481 0.5408,0.412 2.0508,0.6236 2.7443,0.6666l0.3928 -0.529c0.0784,-1.1534 -0.203,-0.4954 0.4589,-0.704 -0.2536,-0.4882 -0.0457,-0.1002 -0.2487,-0.4104 -0.0879,-0.1344 -0.009,0.0452 -0.2227,-0.3228 -0.1082,-0.1213 -0.1413,-0.1506 -0.2794,-0.3429 -0.3673,-0.5116 -1.5394,-2.3884 -1.622,-2.7789 -0.3915,-0.2278 -0.2935,0.3789 -0.358,-0.4845 -0.6342,-0.4202 -1.2532,-1.5278 -1.5184,-2.2257 -0.5916,-0.2805 -0.2253,-0.0861 -0.5875,-0.4601 -0.2415,-0.2492 -0.1392,-0.1875 -0.3369,-0.4255 -0.2573,0.1849 -0.1972,-0.504 -0.2206,0.5742z"/>
    <path id="_426541080" class="fil17" d="M123.688 112.462c-0.4408,0.219 0.1485,-0.3745 -0.2072,0.2234 -0.1204,0.2023 -0.109,0.1991 -0.222,0.4979 -0.1703,0.4508 -0.2583,0.62 -0.3566,1.2432 0.6661,0.0459 0.1382,0.1462 0.8494,0.1429l0.2339 -0.0132c0.4389,-0.0933 0.1633,0.0134 0.3856,-0.2153l0.2262 -0.3478c0.0121,-0.0694 0.0411,-0.0947 0.0729,-0.1344 1.1884,-0.086 1.38,-0.0076 2.0995,-0.2976 0.0448,-0.0181 0.0924,-0.0448 0.1376,-0.0625l0.7719 -0.2239c0.8019,-0.1986 0.6921,-0.2543 1.2439,-0.4491 1.3211,-0.4662 0.5703,0.2696 2.8538,-0.7251 0.8012,-0.349 0.6622,-0.1232 1.4404,-0.3364 0.3849,-0.1054 0.0501,0.0014 0.4177,-0.1608 1.8146,-0.8014 1.3696,-0.2685 1.7519,-0.8933l0.0216 1.9237c0.1518,-0.2256 0.0706,0.0083 0.178,-0.414 0.048,-0.189 0.0728,-0.335 0.0916,-0.5308 0.0448,-0.4636 0.0102,-0.8833 -0.0318,-1.339l0.0945 -0.4647c-0.3532,-0.242 -0.3098,-0.2086 -0.7228,-0.2114l-0.7726 0.1617c-1.6903,0.7661 -2.6061,0.6455 -4.665,1.4548 -0.8961,0.3522 -1.6972,0.4445 -2.4724,0.6652l-1.0518 0.3141c-0.8788,0.2585 -0.496,0.0631 -0.993,0.7272l-1.3752 -0.5348z"/>
    <path id="_457564184" class="fil18" d="M90.6856 125.036c0.229,1.4501 0.4304,1.5067 1.7952,1.7399l0.935 0.2436c0.045,0.0167 0.0949,0.0397 0.1395,0.0571l1.484 0.6768c1.0763,0.6153 1.7647,1.0852 2.6237,1.8945l1.2733 1.0839c-0.0232,-1.0389 -0.9694,-3.4185 -1.3708,-4.1297l-1.3877 -1.9508c-0.5499,-0.6499 -0.7074,-0.8381 -1.5622,-0.9914 -0.0049,1.4455 -0.165,0.7083 0.1954,0.9821l-0.7847 0.3931 0.7837 0.7847c-2.4675,0.0194 -2.1429,0.5218 -3.242,-0.2959 -0.3364,-0.2506 -0.4742,-0.4211 -0.8824,-0.4879z"/>
    <path id="_426541296" class="fil19" d="M124.67 133.69c0.8763,2.1079 4.974,3.7668 5.1086,3.9174l1.0213 -0.6211c0.4172,-0.0657 0.0989,-0.0497 0.4657,0.035 0.8102,0.187 -0.2267,-0.0847 0.3601,0.1253l0.3812 0.1657 -0.4028 -1.0214 0.8334 -0.2742c1.0502,-0.1761 1.2905,0.3348 2.649,-0.2012 0.0599,-0.0234 0.1313,-0.0568 0.1905,-0.0963 -0.6606,0.0265 -1.3234,0.0395 -1.9819,0l-1.3564 -0.3612c-0.6877,0.0865 -1.0682,0.0519 -1.4884,-0.4068 -0.6511,-0.0269 -0.5875,-0.0301 -1.1764,-0.3675 -0.1712,-0.0981 -0.3095,-0.1833 -0.4763,-0.3123 -0.3209,-0.248 -0.2118,-0.1515 -0.4042,-0.3865l-1.4239 -1.1548c-0.51,-0.3789 -0.6239,-0.5555 -0.9956,-1.0573l-0.3181 0.7413c0.8729,0.929 0.8729,0.7353 1.0643,1.5724 0.0793,0.3462 0.1111,0.158 0.1223,0.7088l-1.0655 -0.7281 -1.1069 -0.2772z"/>
    <path id="_426540648" class="fil20" d="M125.26 108.675c-0.4344,0.603 -0.6541,0.9889 -0.7856,1.8228 0.7698,0.1877 0.325,0.3499 1.1705,0.0218 0.0376,-0.0146 0.4471,-0.1991 0.5529,-0.243 0.0406,-0.0169 0.091,-0.0401 0.132,-0.0561 1.9325,-0.7559 1.3787,0.1745 3.2214,-1.1146 0.8371,-0.5856 2.1158,-0.1766 4.604,-0.9339l1.3791 -0.2536c-0.0902,0.6355 0.0949,1.348 0.207,1.9671l-0.0945 0.4647 0.2495 0 -0.1003 -2.2098c-0.3691,-0.7234 -0.3004,-1.0751 -0.454,-1.7728l-2.0901 0.525c-1.1698,0.413 -1.0397,0.1627 -1.954,0.4316l-1.4479 0.503c-0.8276,0.249 -2.3582,0.4541 -2.6229,0.3638 -0.1822,-0.0622 -0.0344,-0.1165 -0.3441,-0.1784l-0.4597 1.3077 -1.1633 -0.6453z"/>
    <path id="_426540792" class="fil2" d="M90.6856 125.036c0.4082,0.0668 0.546,0.2373 0.8824,0.4879 1.0991,0.8177 0.7745,0.3153 3.242,0.2959l-0.7837 -0.7847 0.7847 -0.3931c-0.3604,-0.2738 -0.2003,0.4634 -0.1954,-0.9821 -0.026,-0.4077 0.1441,-0.0525 -0.2042,-0.3956 -1.1814,-1.1636 -4.1821,-1.0712 -5.69,-1.1759 0.0577,0.6956 -0.0168,0.4805 0.5835,1.1842 0.0264,0.0309 0.0663,0.0729 0.0926,0.104 0.0262,0.0308 0.0654,0.0738 0.0914,0.1051l0.6438 0.942c0.4857,0.7541 0.3455,0.5459 0.5529,0.6123z"/>
    <path id="_426541176" class="fil21" d="M135.166 132.346c0.4447,0.529 0.6719,0.3485 1.5206,0.378l-3.2562 1.0824c-0.7092,0.2348 -0.9645,0.2919 -1.6559,0.5104 -0.694,0.2195 -0.6745,0.3875 -1.3241,0.6341 0.4202,0.4587 0.8007,0.4933 1.4884,0.4068 0.8972,-0.0699 1.5019,-0.2161 2.3297,-0.5427 2.1137,-0.8346 1.5065,-0.5042 3.4903,-1.0386 0.967,-0.2603 2.8302,-1.0626 3.7439,-1.0918l1.2543 -1.285c-1.0068,-0.0392 -2.2998,0.701 -3.553,0.8968 -1.2979,0.2028 -2.6765,0.2183 -4.038,0.0496z"/>
    <path id="_426541128" class="fil11" d="M121.33 126.214c-0.3348,0.8666 0.2807,3.1455 0.7867,3.5369l0.9822 -0.2436c0.1049,0.3077 -0.2696,-0.2789 0.3928,1.4942l0.9088 -1.2545 0.0719 -0.3889 -0.6577 -1.4183 -0.3692 -1.2562c-0.4151,-0.8155 -0.3661,-3.4689 -0.3197,-4.7209 -1.126,0.9504 0.3979,2.5536 -1.0868,3.4244 -0.7466,0.4378 -0.7088,0.0425 -0.709,0.042l0 0.7849z"/>
    <path id="_426540192" class="fil22" d="M122.117 129.751c0.1799,1.1402 1.4314,3.0407 2.0423,3.6604 0.3622,0.3673 0.1531,0.2578 0.5114,0.2789l1.1069 0.2772 1.0655 0.7281c-0.0112,-0.5508 -0.043,-0.3626 -0.1223,-0.7088 -0.1914,-0.8371 -0.1914,-0.6434 -1.0643,-1.5724l0.3181 -0.7413c-0.2596,-0.2381 -0.2311,-0.2146 -0.3993,-0.5849l-1.1745 -1.3411 -0.9088 1.2545c-0.6624,-1.7731 -0.2879,-1.1865 -0.3928,-1.4942l-0.9822 0.2436z"/>
    <path id="_426540168" class="fil23" d="M142.939 114.035c-0.1847,0.7587 0.2982,1.2383 0.9283,2.8051l1.0372 3.1787 0.8577 -0.1749c-0.0234,-0.6437 -0.0125,-1.2386 0.5172,-1.8792 -0.1998,-0.4496 -0.4211,-1.2587 -0.5893,-1.7687 -0.2049,-0.6218 -0.4884,-1.2731 -0.5903,-1.9647l-1.0172 0.8497 -0.1285 -1.5829 -0.522 1.0269 -0.3386 -0.3979c-0.2417,-0.2485 -0.0431,-0.3726 -0.1545,-0.0921z"/>
    <path id="_426540024" class="fil24" d="M126.97 132.73l1.4239 1.1548c0.6077,-0.6263 0.0258,-0.2263 0.988,-0.3789 0.9408,-0.1494 2.8144,-0.7005 3.7327,-1.0237l-0.1926 -0.51 -0.9162 -0.4151 -1.7388 -0.6707c-0.1721,0.3014 -0.1559,0.2438 -0.3088,0.6243 -1.2118,0.0645 -0.7789,-0.0837 -1.778,0.1778 -1.1731,0.3074 -0.741,0.1487 -1.2102,1.0415z"/>
    <path id="_426539832" class="fil25" d="M131.939 135.358l1.3564 0.3612c0.6585,0.0395 1.3213,0.0265 1.9819,0 1.1947,-0.0547 2.5353,-0.4118 3.4759,-0.9176 0.6072,-0.3267 0.9712,-0.5875 1.4388,-0.9223 0.2348,-0.1682 0.5631,-0.3861 0.6865,-0.4842 0.1659,-0.1318 0.1805,-0.1279 0.3323,-0.2972 0.3032,-0.3383 0.0178,0.0895 0.2921,-0.413 -0.9137,0.0292 -2.7769,0.8315 -3.7439,1.0918 -1.9838,0.5344 -1.3766,0.204 -3.4903,1.0386 -0.8278,0.3266 -1.4325,0.4728 -2.3297,0.5427z"/>
    <path id="_426539808" class="fil26" d="M128.394 133.885c0.1924,0.235 0.0833,0.1385 0.4042,0.3865 0.1668,0.129 0.3051,0.2142 0.4763,0.3123 0.5889,0.3374 0.5253,0.3406 1.1764,0.3675 0.6496,-0.2466 0.6301,-0.4146 1.3241,-0.6341 0.6914,-0.2185 0.9467,-0.2756 1.6559,-0.5104l3.2562 -1.0824c-0.8487,-0.0295 -1.0759,0.151 -1.5206,-0.378l-2.2444 -0.374 0.1926 0.51c-0.9183,0.3232 -2.7919,0.8743 -3.7327,1.0237 -0.9622,0.1526 -0.3803,-0.2474 -0.988,0.3789z"/>
    <path id="_426540000" class="fil27" d="M135.859 110.765l-0.1053 1.3044c0.8424,0.1814 0.1967,-0.5506 0.6988,0.0459 0.6267,0.7446 0.245,0.4002 1.0699,0.739 1.4341,0.5884 -0.6741,-0.5982 0.4401,0.2564 0.0436,0.0334 0.1529,0.1538 0.2012,0.1888 0.3847,0.2803 0.6789,0.2019 1.4378,0.2495l0 0.6821c0.5371,-0.4241 0.1394,0.0807 0.4295,-0.5425 0.1146,-0.2461 0.1389,-0.4352 0.1628,-0.838 0.0337,-0.5608 -0.0039,-1.2669 -0.0039,-1.8443l-0.3928 0.529c-0.6935,-0.043 -2.2035,-0.2546 -2.7443,-0.6666 -0.5096,-0.3882 0.3508,0.0018 -0.4038,-0.3481 -0.2833,-0.1313 -0.3847,-0.0615 -0.79,0.2444z"/>
    <path id="_426539952" class="fil28" d="M141.563 111.481c-0.1218,0.5007 -0.2942,0.1635 0.4218,1.3394 0.1007,0.1652 0.2952,0.5395 0.3567,0.626 0.4682,0.6587 -0.0418,0.187 0.5967,0.5884 0.1114,-0.2805 -0.0872,-0.1564 0.1545,0.0921l0.3386 0.3979 0.522 -1.0269 0.1285 1.5829 1.0172 -0.8497c-0.3297,-0.7907 -0.5199,-1.3016 -0.7849,-1.9647 -0.1812,-0.4541 -0.4613,-1.4789 -0.7856,-1.7687 -0.3216,0.2427 -0.0764,0.0928 -0.9789,-0.1699l-0.1998 1.5541 -0.7858 -0.829 -0.001 0.4281z"/>
    <path id="_426540072" class="fil29" d="M138.276 106.447c0.0826,0.3905 1.2547,2.2673 1.622,2.7789 0.1381,0.1923 0.1712,0.2216 0.2794,0.3429l0.3554 -0.8383 0.6993 0.0824c0.0214,-0.0065 0.0778,-0.0276 0.1007,-0.0355l0.4764 -0.1752c0.8048,-0.2874 -0.1395,-0.0867 0.738,-0.2322 -0.1311,-0.607 -0.2457,-0.7355 -0.5195,-1.2884 -0.0844,-0.1708 -0.1995,-0.4221 -0.2626,-0.5221 -0.4471,-0.7076 -0.046,-0.2587 -0.3965,-0.4102 -0.6003,0.035 -0.0191,-0.1575 -0.5894,0.661l-0.157 -0.2997c-0.3383,-0.5021 -0.0179,-0.2488 -0.3801,-0.4012 -1.1339,-0.478 -0.065,0.9353 -1.4072,0.6325 -0.471,-0.1063 -0.3476,0.6687 -0.413,-0.5926l-0.1459 0.2977z"/>
    <path id="_426540480" class="fil30" d="M138.456 117.818l0.948 0.0886 0 -1.009c-0.3113,-0.436 -0.1955,-0.3938 -0.2322,-1.0423 -2.2367,0.2102 -1.603,-0.0299 -1.9286,-0.7452l-0.5893 0.7144c-1.1051,-1.0469 -0.0643,-0.7149 -1.2483,-0.7249l0.007 -1.3366c-0.0304,0.0392 -0.1056,0.0816 -0.2378,0.4589 -0.2093,0.5972 -0.1729,1.5262 -0.1938,2.1694 0.2281,0.2148 0.062,0.1188 0.3847,0.3021 0.5689,0.3227 1.6316,0.5179 2.2882,0.6759 1.0842,0.2612 0.5474,-0.3875 0.8021,0.4487z"/>
    <path id="_426540600" class="fil14" d="M136.399 103.737c0.2652,0.6979 0.8842,1.8055 1.5184,2.2257l0.283 -1.0139 0.6998 -0.2109c0.0422,-0.0179 0.0898,-0.0487 0.1329,-0.0668 0.0437,-0.0183 0.0898,-0.0497 0.1348,-0.0668 0.6706,-0.255 0.7557,-0.2251 1.4142,0 -0.1274,-0.7404 0.0552,-0.2311 -0.1947,-0.7843 -0.429,-0.9503 -0.0371,-0.28 -0.3946,-0.3944 -0.4919,-0.2508 -0.7738,-0.2582 -1.004,-0.5947 -0.7984,-1.1661 0.5863,0.3044 -0.1747,-0.7438l-0.5626 1.1441 -1.7931 0.0406 -0.0594 0.4652z"/>
    <path id="_426540768" class="fil31" d="M140.177 109.569c0.2137,0.368 0.1348,0.1884 0.2227,0.3228 0.203,0.3102 -0.0049,-0.0778 0.2487,0.4104 0.0703,0.6926 -0.2134,0.064 0.2555,0.6508 0.6373,0.7968 0.0248,0.1288 0.6596,0.5279l0.001 -0.4281 0.7858 0.829 0.1998 -1.5541c0.9025,0.2627 0.6573,0.4126 0.9789,0.1699 -0.2019,-0.6613 -0.4365,-1.3395 -0.8186,-1.9172l-0.1636 -0.2102c-0.8775,0.1455 0.0668,-0.0552 -0.738,0.2322l-0.4764 0.1752c-0.0229,0.0079 -0.0793,0.029 -0.1007,0.0355l-0.6993 -0.0824 -0.3554 0.8383z"/>
    <path id="_426537888" class="fil32" d="M125.575 131.088c0.1682,0.3703 0.1397,0.3468 0.3993,0.5849 0.3717,0.5018 0.4856,0.6784 0.9956,1.0573 0.4692,-0.8928 0.0371,-0.7341 1.2102,-1.0415 0.9991,-0.2615 0.5662,-0.1133 1.778,-0.1778 0.1529,-0.3805 0.1367,-0.3229 0.3088,-0.6243 -0.2165,-0.1894 -0.409,-0.2562 -0.6153,-0.3952 -0.0691,-0.0466 -0.2914,-0.2051 -0.3626,-0.2661 -0.2949,-0.2527 -0.0989,-0.0387 -0.3228,-0.3506 -0.3902,-0.0816 -0.4647,-0.1603 -0.8327,-0.3197 -0.0325,0.6211 -0.1766,0.6434 -0.9293,0.9334 -0.0452,0.0174 -0.0965,0.0378 -0.1426,0.0543l-1.4866 0.5453z"/>
    <path id="_426539376" class="fil33" d="M139.404 116.898c0.2495,-0.8536 0.3931,-1.1826 0.3931,-2.3184l-1.7833 -0.2424c-1.1483,-0.1789 -0.659,0.0837 -1.9072,-0.3641l-0.694 -0.2097 -0.007 1.3366c1.184,0.01 0.1432,-0.322 1.2483,0.7249l0.5893 -0.7144c0.3256,0.7153 -0.3081,0.9554 1.9286,0.7452 0.0367,0.6485 -0.0791,0.6063 0.2322,1.0423z"/>
    <path id="_426539088" class="fil34" d="M135.409 112.634l0.0388 0.616 -0.0353 0.5137 0.694 0.2097c1.2482,0.4478 0.7589,0.1852 1.9072,0.3641l1.7833 0.2424 -0.1956 -0.3487 0 -0.6821c-0.7589,-0.0476 -1.0531,0.0308 -1.4378,-0.2495 -0.0483,-0.035 -0.1576,-0.1554 -0.2012,-0.1888 -1.1142,-0.8546 0.994,0.332 -0.4401,-0.2564 -0.8249,-0.3388 -0.4432,0.0056 -1.0699,-0.739 -0.5021,-0.5965 0.1436,0.1355 -0.6988,-0.0459l0.1053 -1.3044 0.0374 -0.4149 -0.2495 0c0.042,0.4557 0.0766,0.8754 0.0318,1.339 -0.0188,0.1958 -0.0436,0.3418 -0.0916,0.5308 -0.1074,0.4223 -0.0262,0.1884 -0.178,0.414z"/>
    <path id="_426540864" class="fil20" d="M137.918 105.963c0.0645,0.8634 -0.0335,0.2567 0.358,0.4845l0.1459 -0.2977c0.0654,1.2613 -0.058,0.4863 0.413,0.5926 1.3422,0.3028 0.2733,-1.1105 1.4072,-0.6325 0.3622,0.1524 0.0418,-0.1009 0.3801,0.4012l0.157 0.2997c0.5703,-0.8185 -0.0109,-0.626 0.5894,-0.661 -0.0986,-0.597 -0.0548,-0.5387 -0.3165,-1.0578 -0.4961,-0.9837 -0.1782,-0.3942 -0.4694,-0.4874 -0.6585,-0.2251 -0.7436,-0.255 -1.4142,0 -0.045,0.0171 -0.0911,0.0485 -0.1348,0.0668 -0.0431,0.0181 -0.0907,0.0489 -0.1329,0.0668l-0.6998 0.2109 -0.283 1.0139z"/>
    <path id="_426539136" class="fil35" d="M124.472 129.358l-0.0719 0.3889 1.1745 1.3411 1.4866 -0.5453c0.0461,-0.0165 0.0974,-0.0369 0.1426,-0.0543 0.7527,-0.29 0.8968,-0.3123 0.9293,-0.9334 -0.4599,-0.5306 -0.7696,-0.8972 -1.3183,-1.2181 -0.3414,0.8596 -1.3752,1.0105 -2.3428,1.0211z"/>
    <path id="_426539616" class="fil36" d="M123.446 126.684c0.8678,-0.3199 0.9833,0.1174 1.5525,-0.513l-0.345 -1.0408 -0.381 -0.4726c-0.1928,-0.4149 -0.0956,-0.1852 -0.2153,-0.7276l-0.9309 -1.9669c-0.0464,1.252 -0.0954,3.9054 0.3197,4.7209z"/>
    <path id="_426541968" class="fil37" d="M123.815 127.94l0.6577 1.4183c0.9676,-0.0106 2.0014,-0.1615 2.3428,-1.0211 -0.2601,-0.5063 -0.7024,-0.9645 -1.2481,-1.3153l0.1234 0.6037c-1.013,0.0021 -1.0974,-0.0828 -1.8758,0.3144z"/>
    <path id="_426539520" class="fil38" d="M123.446 126.684l0.3692 1.2562c0.7784,-0.3972 0.8628,-0.3123 1.8758,-0.3144l-0.1234 -0.6037 0.1098 -0.3467c-0.2309,-0.102 -0.0722,-0.0069 -0.3198,-0.1842 -0.1742,-0.125 -0.122,0.204 -0.2359,-0.2018 -0.0207,-0.0734 -0.081,-0.0803 -0.1232,-0.1184 -0.5692,0.6304 -0.6847,0.1931 -1.5525,0.513z"/>
   </g>
   <path id="_426539928" class="fil39" d="M170.303 164.501l-1.778 0.0057 0.0057 -1.4789 5.2324 0 -0.0057 1.4732 -1.7667 0.0057 -0.0056 5.9718 -1.6821 0 0 -5.9775zm5.5315 -1.4732l3.0367 0c0.4328,0 0.8185,0.0903 1.1571,0.271 0.3387,0.1806 0.6078,0.4402 0.8053,0.7808 0.1976,0.3405 0.2954,0.7469 0.2954,1.2173 0,0.4704 -0.0828,0.8542 -0.2502,1.1533 -0.1675,0.2992 -0.3688,0.5231 -0.6021,0.6717 -0.2333,0.1487 -0.4497,0.239 -0.6491,0.2691l1.8119 3.0875 -1.8966 0 -1.6143 -2.9577 -0.4064 0 0 2.9577 -1.6877 0 0 -7.4507zm1.6877 3.3246l0.7451 0c0.301,0 0.5644,-0.0734 0.7902,-0.2201 0.2258,-0.1468 0.3387,-0.4064 0.3387,-0.779 0,-0.3725 -0.111,-0.6321 -0.3331,-0.777 -0.222,-0.1449 -0.4835,-0.2164 -0.7845,-0.2164l-0.7564 0 0 1.9925zm6.2258 -3.3246l4.7527 0 0 1.4732 -3.0763 0.0057 0 1.524 3.048 -0.0057 -0.0056 1.4337 -3.0424 0 0 1.5466 3.0763 -0.0056 0 1.4788 -4.7583 0 0.0056 -7.4507zm9.6407 0l1.6764 0 2.9408 7.4507 -1.8006 0 -0.5419 -1.4958 -2.8674 0 -0.5475 1.4958 -1.8062 0 2.9464 -7.4507zm-0.0282 4.4761l1.7441 0 -0.8636 -2.4441 -0.0169 0 -0.8636 2.4441zm7.8232 -3.0029l-1.778 0.0057 0.0057 -1.4789 5.2324 0 -0.0057 1.4732 -1.7667 0.0057 -0.0056 5.9718 -1.6821 0 0 -5.9775zm5.6275 -1.4732l1.682 0 0.0057 7.4507 -1.6877 0 0 -7.4507zm5.7516 1.5466l0.1242 0.0226 0 5.8815 -1.6877 0 0 -7.4507 2.3029 0 3.0198 5.8703 -0.1242 0.0225 0 -5.8928 1.6877 0 0 7.4507 -2.3142 0 -3.0085 -5.9041zm11.3284 1.7385l3.7987 0 0 0.4741c0,0.5344 -0.0884,1.033 -0.2671,1.4958 -0.1788,0.4629 -0.4347,0.8693 -0.7658,1.2192 -0.3311,0.35 -0.7263,0.6228 -1.1853,0.8185 -0.4591,0.1956 -0.9671,0.2935 -1.524,0.2935 -0.5758,0 -1.0969,-0.0998 -1.5654,-0.2973 -0.4685,-0.1976 -0.873,-0.4723 -1.2117,-0.826 -0.3387,-0.3537 -0.5983,-0.7657 -0.7789,-1.2342 -0.1807,-0.4685 -0.271,-0.9709 -0.271,-1.509 0,-0.5343 0.0903,-1.0367 0.271,-1.5052 0.1806,-0.4685 0.4402,-0.8786 0.7789,-1.2305 0.3387,-0.3518 0.7432,-0.6265 1.2117,-0.824 0.4685,-0.1976 0.9896,-0.2954 1.5654,-0.2954 0.4703,0 0.8861,0.0508 1.2455,0.1524 0.3594,0.1016 0.6679,0.237 0.9276,0.4064 0.2596,0.1693 0.4798,0.3537 0.6604,0.555 0.1806,0.2013 0.3311,0.3989 0.4515,0.5908l-1.603 0.7563c-0.1543,-0.237 -0.3631,-0.444 -0.6284,-0.6209 -0.2653,-0.1768 -0.6171,-0.2652 -1.0536,-0.2652 -0.3048,0 -0.5833,0.0602 -0.8373,0.1806 -0.254,0.1204 -0.4741,0.2841 -0.6585,0.4929 -0.1844,0.2089 -0.3255,0.4516 -0.4252,0.7282 -0.0998,0.2765 -0.1506,0.5701 -0.1506,0.8786 0,0.3123 0.0508,0.6059 0.1506,0.8806 0.0997,0.2746 0.2408,0.5174 0.4252,0.7281 0.1844,0.2107 0.4045,0.3744 0.6585,0.4929 0.254,0.1186 0.5325,0.1788 0.8373,0.1788 0.2671,0 0.5098,-0.0339 0.7281,-0.1016 0.2182,-0.0678 0.4083,-0.1656 0.5682,-0.2935 0.1599,-0.128 0.286,-0.2804 0.3782,-0.4554 0.0922,-0.1749 0.1467,-0.3668 0.1656,-0.5776l-1.8966 0 0 -1.2869zm17.78 4.1656l-2.0264 0 -1.2643 -5.1985 0.3048 0 -1.2644 5.1985 -2.0376 0 -1.699 -7.4507 1.936 0 0.8975 5.2268 -0.0226 0 1.3998 -5.2268 1.27 0 1.4055 5.2268 -0.0226 0 0.8975 -5.2268 1.9361 0 -1.7103 7.4507zm6.3104 -7.4507l1.6764 0 2.9408 7.4507 -1.8006 0 -0.5419 -1.4958 -2.8674 0 -0.5475 1.4958 -1.8062 0 2.9464 -7.4507zm-0.0282 4.4761l1.7441 0 -0.8636 -2.4441 -0.0169 0 -0.8636 2.4441zm7.8232 -3.0029l-1.778 0.0057 0.0057 -1.4789 5.2324 0 -0.0057 1.4732 -1.7667 0.0057 -0.0056 5.9718 -1.6821 0 0 -5.9775zm5.571 -1.4732l4.7527 0 0 1.4732 -3.0763 0.0057 0 1.524 3.048 -0.0057 -0.0056 1.4337 -3.0424 0 0 1.5466 3.0763 -0.0056 0 1.4788 -4.7583 0 0.0056 -7.4507zm7.191 0l3.0367 0c0.4328,0 0.8185,0.0903 1.1571,0.271 0.3387,0.1806 0.6078,0.4402 0.8053,0.7808 0.1976,0.3405 0.2954,0.7469 0.2954,1.2173 0,0.4704 -0.0828,0.8542 -0.2502,1.1533 -0.1675,0.2992 -0.3688,0.5231 -0.6021,0.6717 -0.2333,0.1487 -0.4497,0.239 -0.6491,0.2691l1.8119 3.0875 -1.8966 0 -1.6143 -2.9577 -0.4064 0 0 2.9577 -1.6877 0 0 -7.4507zm1.6877 3.3246l0.7451 0c0.301,0 0.5644,-0.0734 0.7902,-0.2201 0.2258,-0.1468 0.3387,-0.4064 0.3387,-0.779 0,-0.3725 -0.111,-0.6321 -0.3331,-0.777 -0.222,-0.1449 -0.4835,-0.2164 -0.7845,-0.2164l-0.7564 0 0 1.9925zm10.4592 -3.3246l4.3011 0 0 1.4732 -2.6191 0.0057 -0.0056 1.5014 2.4271 0 0 1.4676 -2.4215 0.0056 -0.0056 2.9972 -1.6821 0 0.0057 -7.4507zm8.0828 3.7197c0,0.4252 0.0885,0.8091 0.2635,1.1534 0.1749,0.3443 0.4176,0.619 0.7281,0.8222 0.3104,0.2032 0.6698,0.3048 1.08,0.3048 0.4101,0 0.7714,-0.1016 1.0818,-0.3048 0.3105,-0.2032 0.5532,-0.4779 0.7281,-0.8222 0.175,-0.3443 0.2616,-0.7282 0.2616,-1.1534 0,-0.4252 -0.0866,-0.809 -0.2616,-1.1514 -0.1749,-0.3425 -0.4176,-0.6172 -0.7281,-0.8223 -0.3104,-0.205 -0.6717,-0.3066 -1.0818,-0.3066 -0.4102,0 -0.7696,0.1016 -1.08,0.3066 -0.3105,0.2051 -0.5532,0.4798 -0.7281,0.8223 -0.175,0.3424 -0.2635,0.7262 -0.2635,1.1514zm-1.7554 0c0,-0.5418 0.096,-1.048 0.2879,-1.5165 0.1919,-0.4684 0.461,-0.8767 0.8071,-1.2267 0.3462,-0.3499 0.7526,-0.6228 1.2192,-0.8184 0.4667,-0.1957 0.9709,-0.2935 1.5128,-0.2935 0.5494,0 1.0574,0.0978 1.5221,0.2935 0.4647,0.1956 0.8692,0.4685 1.2135,0.8184 0.3443,0.35 0.6115,0.7583 0.8015,1.2267 0.1901,0.4685 0.2842,0.9747 0.2842,1.5165 0,0.5456 -0.0922,1.0518 -0.2766,1.5203 -0.1844,0.4684 -0.4478,0.8786 -0.7902,1.2304 -0.3425,0.3519 -0.747,0.6266 -1.2136,0.8223 -0.4666,0.1956 -0.9803,0.2935 -1.5409,0.2935 -0.572,0 -1.0913,-0.0979 -1.5598,-0.2935 -0.4685,-0.1957 -0.873,-0.4704 -1.2117,-0.8223 -0.3386,-0.3518 -0.5983,-0.762 -0.7808,-1.2304 -0.1825,-0.4685 -0.2747,-0.9747 -0.2747,-1.5203zm9.7762 -3.7197l3.0367 0c0.4328,0 0.8185,0.0903 1.1571,0.271 0.3387,0.1806 0.6078,0.4402 0.8053,0.7808 0.1976,0.3405 0.2954,0.7469 0.2954,1.2173 0,0.4704 -0.0828,0.8542 -0.2502,1.1533 -0.1675,0.2992 -0.3688,0.5231 -0.6021,0.6717 -0.2333,0.1487 -0.4497,0.239 -0.6491,0.2691l1.8119 3.0875 -1.8966 0 -1.6143 -2.9577 -0.4064 0 0 2.9577 -1.6877 0 0 -7.4507zm1.6877 3.3246l0.7451 0c0.301,0 0.5644,-0.0734 0.7902,-0.2201 0.2258,-0.1468 0.3387,-0.4064 0.3387,-0.779 0,-0.3725 -0.111,-0.6321 -0.3331,-0.777 -0.222,-0.1449 -0.4835,-0.2164 -0.7845,-0.2164l-0.7564 0 0 1.9925zm11.7969 -1.8514l-1.778 0.0057 0.0057 -1.4789 5.2324 0 -0.0057 1.4732 -1.7667 0.0057 -0.0056 5.9718 -1.6821 0 0 -5.9775zm9.8213 2.9747l-2.5739 0.0056 0 2.9972 -1.682 0 0.0056 -7.4507 1.6764 0 0 2.9803 2.5739 0 0 -2.9803 1.6764 0 0 7.4507 -1.6764 0 0 -3.0028zm4.1543 -4.4479l4.7527 0 0 1.4732 -3.0763 0.0057 0 1.524 3.048 -0.0057 -0.0056 1.4337 -3.0424 0 0 1.5466 3.0763 -0.0056 0 1.4788 -4.7583 0 0.0056 -7.4507zm11.4639 0l4.3011 0 0 1.4732 -2.6191 0.0057 -0.0056 1.5014 2.4271 0 0 1.4676 -2.4215 0.0056 -0.0056 2.9972 -1.6821 0 0.0057 -7.4507zm10.8712 0l1.6877 0 0 4.5777c0,0.6133 -0.1204,1.1439 -0.3612,1.5936 -0.2409,0.4497 -0.5852,0.7977 -1.033,1.0442 -0.4478,0.2465 -0.9821,0.3707 -1.603,0.3707 -0.6247,0 -1.1628,-0.1242 -1.6143,-0.3707 -0.4516,-0.2465 -0.7959,-0.5945 -1.0348,-1.0442 -0.239,-0.4497 -0.3594,-0.9803 -0.3594,-1.5936l0 -4.5777 1.682 0 0 4.4874c0,0.3386 0.0546,0.6246 0.1619,0.8579 0.1072,0.2333 0.2596,0.4083 0.459,0.5268 0.1995,0.1186 0.4347,0.1788 0.7056,0.1788 0.2672,0 0.4986,-0.0602 0.6943,-0.1788 0.1956,-0.1185 0.348,-0.2935 0.4553,-0.5268 0.1072,-0.2333 0.1599,-0.5193 0.1599,-0.8579l0 -4.4874zm5.4638 1.4732l-1.778 0.0057 0.0057 -1.4789 5.2324 0 -0.0057 1.4732 -1.7667 0.0057 -0.0056 5.9718 -1.6821 0 0 -5.9775zm9.8721 -1.4732l1.6877 0 0 4.5777c0,0.6133 -0.1204,1.1439 -0.3612,1.5936 -0.2409,0.4497 -0.5852,0.7977 -1.033,1.0442 -0.4478,0.2465 -0.9821,0.3707 -1.603,0.3707 -0.6247,0 -1.1628,-0.1242 -1.6143,-0.3707 -0.4516,-0.2465 -0.7959,-0.5945 -1.0348,-1.0442 -0.239,-0.4497 -0.3594,-0.9803 -0.3594,-1.5936l0 -4.5777 1.682 0 0 4.4874c0,0.3386 0.0546,0.6246 0.1619,0.8579 0.1072,0.2333 0.2596,0.4083 0.459,0.5268 0.1995,0.1186 0.4347,0.1788 0.7056,0.1788 0.2672,0 0.4986,-0.0602 0.6943,-0.1788 0.1956,-0.1185 0.348,-0.2935 0.4553,-0.5268 0.1072,-0.2333 0.1599,-0.5193 0.1599,-0.8579l0 -4.4874zm4.0414 0l3.0367 0c0.4328,0 0.8185,0.0903 1.1571,0.271 0.3387,0.1806 0.6078,0.4402 0.8053,0.7808 0.1976,0.3405 0.2954,0.7469 0.2954,1.2173 0,0.4704 -0.0828,0.8542 -0.2502,1.1533 -0.1675,0.2992 -0.3688,0.5231 -0.6021,0.6717 -0.2333,0.1487 -0.4497,0.239 -0.6491,0.2691l1.8119 3.0875 -1.8966 0 -1.6143 -2.9577 -0.4064 0 0 2.9577 -1.6877 0 0 -7.4507zm1.6877 3.3246l0.7451 0c0.301,0 0.5644,-0.0734 0.7902,-0.2201 0.2258,-0.1468 0.3387,-0.4064 0.3387,-0.779 0,-0.3725 -0.111,-0.6321 -0.3331,-0.777 -0.222,-0.1449 -0.4835,-0.2164 -0.7845,-0.2164l-0.7564 0 0 1.9925zm6.2258 -3.3246l4.7527 0 0 1.4732 -3.0763 0.0057 0 1.524 3.048 -0.0057 -0.0056 1.4337 -3.0424 0 0 1.5466 3.0763 -0.0056 0 1.4788 -4.7583 0 0.0056 -7.4507z"/>
  </g>
 </g>
</svg>
